<?xml version="1.0" encoding="UTF-8"?>
<svg id="Capa_2" data-name="Capa 2" xmlns="http://www.w3.org/2000/svg" viewBox="0 0 260.91 520.91">
  <defs>
    <style>
      .cls-1 {
        fill: none;
        stroke: #000;
        stroke-miterlimit: 10;
        stroke-width: .91px;
      }
    </style>
  </defs>
  <g id="svg">
    <path class="cls-1" d="M26.63,520.46l-11.34-2.87s-4.36-.96-6.98-3.82-3.49-6.69-3.49-6.69c0,0-4.36-.96-4.36-2.87s4.36-1.91,4.36-1.91v-1.91s-4.36-1.91-3.49-2.87,3.49-1.91,3.49-1.91v-75.51s-3.49-2.87-3.49-4.78,3.49-3.82,3.49-3.82v-4.78l-.87-.96-.87-.96v-1.91l.87-2.87.87-.96v-20.07s-2.62-.96-2.62-1.91.87-2.87.87-2.87v-2.87s-.87-.96-.87-1.91.87-2.87.87-2.87l1.74-.96v-72.65s-.87,0-.87-.96.87-.96.87-.96v-74.56s-3.49-.96-3.49-2.87,4.36-3.82,4.36-3.82v-19.12s-5.23,0-5.23-1.91,2.62-1.91,2.62-1.91l.87-.96h.87v-3.82h.87v-59.26l-1.74-2.87v-2.87l1.74-2.87v-40.15l.87-3.82.87-3.82,4.36-9.56v-3.82h1.74v-4.78l.87-1.91h1.74l1.74-3.82v-2.87l1.74-.96v-.96l.87-.96,8.72-20.07v-1.91l.87-2.87h-.87l-1.74-1.91-.87-.96v-3.82l-.87-1.91.87-1.91.87-.96h205.91l1.74.96-.87,5.74-1.74,4.78h-1.74v1.91l13.96,31.54,2.62,2.87v3.82l6.98,16.25.87,3.82v62.13s5.23.96,5.23,4.78-5.23,4.78-5.23,4.78v28.68s2.62,1.91,2.62,4.78-2.62,2.87-2.62,2.87v7.65s2.62.96,2.62,4.78-2.62,3.82-2.62,3.82v19.12s2.62,0,2.62,2.87-2.62,2.87-2.62,2.87v21.03s5.23,0,5.23,3.82-5.23,2.87-5.23,2.87v1.91s1.74,0,1.74,2.87-1.74,2.87-1.74,2.87v5.74s1.74.96,1.74,3.82-1.74,2.87-1.74,2.87v24.85s5.23,0,5.23,3.82-5.23,3.82-5.23,3.82v73.6s1.74.96,1.74,1.91-.87,1.91-.87,1.91c0,0,1.74.96,1.74,3.82s-1.74,3.82-1.74,3.82v26.76s3.49,2.87,3.49,4.78-3.49,3.82-3.49,3.82v27.72s2.62,1.91,2.62,4.78-2.62,4.78-2.62,4.78v3.82s3.49,1.91,3.49,4.78-3.49,3.82-3.49,3.82c0,0,2.62.96,2.62,2.87s-2.62,1.91-2.62,1.91v1.91s2.62,0,2.62,1.91-2.62,2.87-2.62,2.87v12.43s2.62.96,2.62,3.82-.87,2.87-.87,2.87v2.87l-.87,1.91-.87.96-.87,3.82-6.98,4.78-4.36,1.91h-2.62l-6.11,1.91H26.63Z"/>
  </g>
</svg>